<?xml version="1.0" standalone="no"?>
<!DOCTYPE svg PUBLIC "-//W3C//DTD SVG 20010904//EN"
 "http://www.w3.org/TR/2001/REC-SVG-20010904/DTD/svg10.dtd">
<svg version="1.0" xmlns="http://www.w3.org/2000/svg"
 width="1024.000000pt" height="1024.000000pt" viewBox="0 0 1024.000000 1024.000000"
 preserveAspectRatio="xMidYMid meet">

<g transform="translate(0.000000,1024.000000) scale(0.100000,-0.100000)"
fill="#5E8F92" stroke="none">
<path d="M2371 7669 c-615 -55 -1186 -322 -1621 -758 -140 -140 -217 -234
-326 -397 -216 -324 -353 -692 -406 -1094 -16 -123 -16 -478 0 -600 53 -402
190 -771 406 -1094 109 -163 186 -257 326 -397 407 -408 907 -656 1505 -746
114 -17 268 -18 2865 -18 3035 0 2802 -5 3100 62 670 149 1266 571 1635 1158
72 114 183 341 231 470 51 140 100 335 126 500 31 201 31 532 0 730 -43 277
-113 497 -236 750 -124 253 -278 467 -486 676 -397 399 -885 646 -1466 741
l-139 23 -2710 1 c-1490 1 -2752 -2 -2804 -7z m360 -830 c162 -44 279 -124
381 -258 27 -36 88 -142 135 -236 138 -275 157 -299 508 -650 453 -452 563
-587 744 -912 83 -149 211 -427 246 -533 41 -124 47 -134 166 -257 89 -91 109
-117 109 -141 0 -26 10 -37 65 -77 74 -53 93 -78 74 -102 -21 -25 -175 -15
-215 14 -29 21 -33 21 -45 7 -10 -12 -24 -15 -58 -10 -35 5 -46 2 -56 -11 -12
-16 -18 -16 -60 -5 -82 22 -141 72 -237 203 -26 35 -89 66 -424 205 -8 4 -13
-29 -16 -103 -5 -117 -24 -177 -71 -221 -29 -28 -25 -71 9 -103 28 -26 88 -38
202 -38 88 -1 133 -16 152 -50 15 -29 13 -31 -21 -31 -17 0 -42 -9 -56 -20
-34 -26 -68 -25 -168 6 l-83 26 -47 -21 c-26 -11 -79 -41 -119 -65 -39 -25
-89 -52 -111 -59 -56 -20 -123 -29 -129 -18 -9 14 88 155 115 169 22 11 19 12
-23 8 -27 -2 -81 -19 -124 -40 -82 -39 -115 -43 -154 -21 -33 19 -88 19 -124
0 -19 -10 -33 -12 -39 -6 -17 17 48 68 94 76 50 9 38 19 -38 35 -67 14 -140
-3 -252 -60 -95 -47 -136 -51 -175 -15 l-26 25 -39 -35 c-41 -37 -53 -32 -44
17 4 20 0 28 -17 33 -11 4 -25 18 -30 31 -11 29 -34 30 -78 4 -60 -37 -70 -18
-22 47 26 35 36 41 79 47 27 4 62 13 78 21 38 20 91 18 193 -5 144 -33 217
-23 269 36 40 45 39 73 -4 159 -38 75 -55 170 -55 312 0 86 -7 96 -139 202
-99 81 -160 151 -250 291 -106 165 -144 278 -221 659 -54 274 -93 407 -152
526 -60 123 -56 119 -118 99 -76 -25 -156 -15 -244 31 -66 33 -72 34 -84 18
-12 -17 -24 -55 -37 -117 -6 -27 -7 -27 -25 -11 -52 47 -81 191 -61 300 18 99
55 161 148 252 66 65 86 91 98 129 31 104 127 202 235 239 112 39 259 41 391
4z m4446 17 c167 -45 283 -162 319 -323 52 -234 -107 -459 -356 -505 -159 -30
-355 59 -436 199 -35 59 -64 155 -64 212 0 62 24 153 57 214 31 55 117 138
174 168 93 47 211 60 306 35z m-491 -941 c46 -30 84 -57 84 -61 0 -3 -54 -84
-120 -179 -66 -96 -120 -176 -120 -179 0 -3 14 -25 30 -49 17 -23 37 -61 45
-82 l13 -40 331 -3 331 -2 0 -105 0 -105 -329 0 -330 0 -25 -56 c-14 -30 -35
-69 -47 -85 l-22 -31 39 -56 c144 -209 206 -303 203 -306 -6 -5 -152 -101
-165 -109 -7 -4 -59 63 -135 173 -105 153 -127 180 -144 174 -11 -3 -57 -8
-102 -11 -189 -12 -355 93 -426 271 -16 38 -21 75 -21 146 -1 87 2 101 31 163
93 195 289 288 509 242 30 -7 32 -4 139 152 108 158 134 193 143 193 2 0 42
-25 88 -55z m999 -126 c110 -158 121 -170 144 -165 15 4 63 9 107 13 328 24
558 -311 414 -603 -128 -261 -487 -319 -694 -111 -144 143 -166 357 -54 525
15 24 28 45 28 48 0 3 -52 80 -115 170 -64 91 -118 170 -120 177 -4 12 138
115 161 116 6 1 64 -76 129 -170z m-520 -1384 c160 -26 305 -178 336 -353 31
-176 -73 -362 -248 -445 -64 -30 -75 -32 -178 -32 -108 0 -113 1 -185 37 -273
135 -332 467 -120 678 57 58 156 107 235 119 59 8 83 8 160 -4z"/>
</g>
</svg>
